<svg width="123.78" height="45" viewBox="0 0 165 60" fill="none" xmlns="http://www.w3.org/2000/svg">
<path d="M93.8084 0.561253C93.4744 0.788424 93.2873 1.04232 93.1537 1.51003L92.9532 2.13809H91.7773H90.6013V1.40312V0.654794L89.5056 0.694883L88.3964 0.734972V4.00891C88.3964 7.16259 88.4098 7.30958 88.7038 7.91092C89.3318 9.18041 89.8931 9.35413 93.2873 9.35413H95.9465V8.3519V7.34967H93.6214C91.4833 7.34967 91.2828 7.32295 90.9488 7.06905C90.6147 6.80179 90.6013 6.73497 90.6013 5.50557V4.20936L93.2606 4.24945L95.9198 4.28954L96.0133 3.31404C96.1871 1.36303 96.1737 1.24277 95.7327 0.788424C95.1581 0.227178 94.4365 0.133636 93.8084 0.561253ZM95.1447 1.60357C95.2516 1.79065 95.2516 1.95101 95.1447 2.13809C94.8908 2.6058 94.0757 2.40535 94.0757 1.87083C94.0757 1.33631 94.8908 1.13586 95.1447 1.60357Z" fill="black"/>
<path d="M72.4276 2.73944V4.81071H73.4967H74.5657V3.80848V2.80625H76.1826H77.8129L77.7461 3.74166C77.6526 5.02452 77.1448 6.04011 76.343 6.56126C75.6882 6.96215 74.9532 7.14924 73.4031 7.28287L72.4276 7.37641V8.392V9.39423L73.9376 9.31405C76.3697 9.18042 77.7862 8.61917 78.735 7.44322C79.5368 6.41427 79.7907 5.38532 79.8708 2.83298L79.951 0.668168H76.1826H72.4276V2.73944Z" fill="black"/>
<path d="M80.1781 1.7372V2.80624L82.5567 2.77952L84.922 2.73943L84.9621 1.69711L85.0022 0.668159H82.5835H80.1781V1.7372Z" fill="black"/>
<path d="M104.232 1.7372V2.79288L106.143 2.83297L108.04 2.87306L108 3.34076C107.92 4.06237 107.479 5.22495 107.065 5.74611C106.61 6.32072 105.274 7.02896 104.405 7.14923L103.764 7.2294L103.804 8.25836C103.831 8.8196 103.871 9.30067 103.884 9.31404C103.898 9.3274 104.298 9.28731 104.78 9.20713C106.116 9.00669 107.172 8.6058 107.96 8.00446L108.668 7.45658L109.35 8.15145C110.111 8.92651 110.846 9.35413 111.448 9.35413H111.849V8.3519C111.849 7.76393 111.795 7.34967 111.715 7.34967C111.448 7.34967 110.419 6.28063 110.178 5.74611C109.964 5.2784 109.951 5.13141 110.098 4.70379C110.192 4.43653 110.299 3.40758 110.339 2.43208L110.419 0.668158H107.319H104.232V1.7372Z" fill="black"/>
<path d="M85.7639 3.11359C85.7105 4.43653 85.657 4.73052 85.3363 5.39867C84.7216 6.65479 83.853 7.06905 81.4209 7.28286L80.4454 7.3764V8.36526V9.35413H81.4343C82.6637 9.35413 84.4677 9.02005 85.1759 8.65925C87.0601 7.69711 87.9154 5.90646 87.9287 2.89978V1.60357H86.873H85.8307L85.7639 3.11359Z" fill="black"/>
<path d="M96.3474 4.50334V5.54565L100.089 5.50557L103.831 5.46548V4.47661V3.47438H100.089H96.3474V4.50334Z" fill="black"/>
<path d="M5.47881 4.12919C4.40977 4.4499 3.64808 5.21159 3.51445 6.10691C3.40754 6.84188 3.24719 7.08242 2.85966 7.08242C1.73716 7.08242 0.534491 8.48553 0.534491 9.80847C0.534491 10.7572 1.57681 12.2272 2.49886 12.5746C2.9532 12.7483 4.27614 12.7216 4.81066 12.5479L5.23828 12.3875L7.41645 14.5657L9.60799 16.7439L9.03338 17.4922C7.55008 19.4432 6.42759 21.5813 5.70598 23.853C5.22492 25.363 4.81066 27.1403 4.81066 27.7149C4.81066 27.9956 4.61022 28.1425 3.26055 28.7973C2.40532 29.225 1.76389 29.6125 1.83071 29.6659C1.88416 29.7327 2.4454 29.8797 3.07347 30C4.77057 30.3341 4.67703 30.2673 4.67703 30.9488C4.67703 34.5033 6.12024 38.9532 8.32514 42.2005L9.0601 43.2561L7.16255 45.1537L5.265 47.0512L4.62358 46.7706C2.72603 45.9555 1.21601 46.5033 0.467676 48.2806C0.187052 48.9621 0.213779 50.1381 0.521128 50.7662C1.01556 51.7149 1.65699 52.1292 2.92647 52.2895C3.03338 52.3029 3.19373 52.6236 3.28728 53.0379C3.39418 53.4254 3.59462 53.9198 3.74162 54.1203C4.10242 54.6147 5.02447 55.0557 5.71935 55.0557C6.32068 55.0557 6.40086 55.1359 6.06679 55.3898C5.90643 55.4967 5.86634 55.657 5.93316 55.8976C5.99997 56.1782 6.09351 56.2584 6.40086 56.2584C6.77503 56.2584 6.78839 56.2717 6.88193 57.2606C6.97547 58.2762 7.05565 58.4232 7.34964 58.0624C7.59017 57.7684 7.69707 57.8085 7.88416 58.2628C8.07124 58.7305 8.05788 58.7172 8.55231 58.4633C8.93984 58.2628 8.9532 58.2762 9.15364 58.6637C9.39418 59.1314 9.39418 59.1314 9.80843 58.8641C10.0891 58.6771 10.1425 58.6771 10.4632 58.931L10.8107 59.2116L11.0245 58.8775C11.2116 58.5969 11.2917 58.5702 11.5857 58.6771C11.7728 58.7439 11.9732 58.7706 12.0133 58.7172C12.1336 58.5969 12.1069 57.3408 11.9732 56.7394L11.853 56.2183L13.2294 54.8953L14.5924 53.5724L19.8975 53.6392C26.2316 53.7461 25.4432 53.7461 33.1269 53.6392L39.3274 53.5724L41.5055 54.6414C44.8329 56.2984 48.2405 57.3408 49.6436 57.127C50.4721 57.0067 51.9554 56.245 52.5568 55.6169C52.8374 55.3363 53.2249 54.7751 53.4387 54.3742L53.8129 53.6526L61.804 53.6125L69.8084 53.5858L70.5033 54.0401C72.5479 55.4031 75.5946 56.9265 76.971 57.2739C78.1069 57.5679 79.4966 57.4744 80.2984 57.0735C81.3942 56.5123 82.4499 55.1893 82.9042 53.8129C82.971 53.5991 83.4387 53.5858 90.147 53.5858H97.3229L98.8062 54.5479C100.597 55.7238 102.962 56.9532 103.951 57.2472C105.02 57.5679 106.169 57.5278 106.971 57.1403C108.08 56.6325 109.109 55.3229 109.617 53.8263C109.697 53.5991 110.178 53.5858 117.14 53.5858H124.583L125.733 54.441C129.327 57.1002 132.307 58.637 135.501 59.4922C136.931 59.8797 140.205 59.9733 141.862 59.6793C145.336 59.078 148.557 57.3942 151.457 54.6682L152.592 53.5858H158.298H163.991L164.445 53.1314C164.82 52.7572 164.9 52.5702 164.9 52.1292C164.9 51.3809 164.606 50.8597 164.045 50.5924C163.657 50.4054 163.002 50.3786 159.367 50.3786H155.145L155.826 49.3363C156.2 48.7751 156.548 48.2539 156.615 48.1871C156.708 48.0935 156.962 48.147 157.924 48.4543C158.071 48.4944 158.018 48.6548 157.751 49.1225C157.55 49.4566 157.416 49.7506 157.443 49.7773C157.497 49.8307 163.056 48.6281 163.163 48.5345C163.229 48.4811 162.655 47.9332 160.396 45.9555L159.033 44.7528L158.94 45.4343C158.886 45.7951 158.806 46.1025 158.739 46.1025C158.486 46.1025 157.951 45.7817 157.951 45.6347C157.951 45.5412 158.151 45.0334 158.405 44.4855C158.659 43.9376 158.98 43.1492 159.127 42.7082C159.274 42.2806 159.408 42 159.448 42.0935C159.474 42.1871 159.675 42.0134 159.875 41.706C160.263 41.1581 160.49 41.0111 160.49 41.3319C160.49 41.4254 160.57 41.6125 160.664 41.7595C160.837 41.9866 160.877 41.9599 161.158 41.4521C161.519 40.8241 161.626 40.7706 161.826 41.1581C162.013 41.5189 162.147 41.4922 162.334 41.0913C162.534 40.6503 162.628 40.6771 163.069 41.2517L163.43 41.7327V40.9844V40.2227H164.045C164.779 40.2227 164.779 40.2094 163.857 38.9265C163.403 38.2984 163.122 37.7506 162.975 37.1626C162.695 36.0535 162.107 35.0379 161.158 34.0356L160.41 33.2339L160.891 32.7929C161.84 31.9376 162.481 29.9733 162.294 28.5434C162.094 27.0468 161.425 25.9109 160.436 25.3229C158.779 24.3474 156.855 25.029 155.866 26.9265C155.626 27.3809 155.385 27.6615 155.252 27.6615C155.051 27.6615 155.011 27.4878 154.984 26.3519L154.944 25.0557L153.875 25.0156C152.151 24.9488 152.205 24.9087 152.205 26.392V27.6748L150.508 27.6348L148.797 27.5947L148.851 27.1938C148.944 26.3118 149.546 24.2539 150.013 23.1448C151.563 19.5368 154.263 16.3831 157.911 13.9243C158.365 13.6169 158.766 13.363 158.806 13.363C158.846 13.363 158.9 13.8708 158.913 14.4855L158.953 15.5947L161.024 13.2962C162.16 12.0267 163.096 10.9443 163.122 10.8775C163.149 10.8107 162.481 10.5835 161.666 10.3697C160.837 10.1693 159.381 9.78175 158.445 9.52785C157.497 9.27395 156.708 9.08687 156.681 9.1136C156.655 9.14032 156.935 9.51449 157.296 9.95547L157.951 10.7572L156.521 11.225C149.773 13.4432 144.481 19.8441 143.425 27.0601C143.238 28.3163 143.225 28.7973 143.359 30.3341C143.733 34.6904 145.056 38.3786 147.301 41.3586C148.771 43.3229 151.203 45.5546 152.566 46.2094C152.806 46.3296 153.007 46.4766 153.007 46.5434C153.007 46.7305 151.644 48.7617 150.922 49.6303L150.321 50.3786H138.762H127.203L126.12 49.6437L125.038 48.9221L126.027 48.882L127.016 48.8419L127.096 44.7662C127.136 42.5212 127.163 40.6771 127.149 40.6637C127.136 40.637 126.869 40.9844 126.548 41.4388C125.933 42.2806 124.797 43.1492 123.929 43.4298C123.635 43.5368 122.967 43.5768 122.218 43.5368C120.828 43.4699 119.973 43.1225 119.118 42.2673C117.889 41.0512 117.648 39.6348 117.782 34.2895C117.822 32.1648 117.889 30.4009 117.929 30.3608C118.049 30.2405 120 30.735 120.695 31.0557C121.724 31.5368 122.499 32.2584 123.207 33.3675L123.835 34.343L123.915 32.1114C123.969 30.8953 124.009 28.6771 124.009 27.2071L123.996 24.5212L123.661 24.9221C123.474 25.1359 123.087 25.6036 122.806 25.9376C121.831 27.1002 120.388 27.7951 118.543 28.0089L117.728 28.1025L117.742 25.5768C117.742 24.1871 117.795 22.0891 117.849 20.9131C117.929 19.0022 117.982 18.6949 118.29 18.0134C118.744 17.0245 119.786 15.9822 120.775 15.5279C121.817 15.0468 123.261 15.0201 124.129 15.4878C124.837 15.8619 125.96 16.8909 126.227 17.412C126.387 17.706 126.508 17.7862 126.788 17.7461L127.149 17.706L127.189 14.1247L127.216 10.5568H118.517H109.817L110.753 11.4521C112.022 12.6949 112.183 13.1626 112.45 16.4098C112.65 18.9354 112.918 24.0802 112.851 24.1604C112.824 24.1871 112.744 23.8797 112.65 23.4922C112.129 21.2472 110.739 19.5501 108.508 18.4544L107.185 17.8129L107.8 17.225C108.134 16.9042 108.575 16.2762 108.775 15.8352L109.149 15.0334L110.459 14.6058C111.715 14.2049 111.782 14.1648 111.822 13.7907L111.862 13.3898L110.352 13.0156C108.842 12.6548 108.842 12.6548 108.428 12.0401C107.947 11.3185 106.851 10.6103 106.022 10.4766C104.766 10.2895 103.537 10.8508 102.655 12.0134C102.227 12.588 102.147 12.6281 100.784 12.9889C99.9955 13.1893 99.3006 13.363 99.2472 13.363C99.1804 13.363 99.1536 13.5501 99.1804 13.7907C99.2205 14.1915 99.2472 14.2183 100.517 14.5791C102.067 15.0201 102.04 14.9933 102.134 15.461C102.241 16.0089 103.002 17.0913 103.51 17.412C103.764 17.5724 103.964 17.7327 103.964 17.7728C103.964 17.8129 103.39 18.1069 102.681 18.4276C100.971 19.216 99.6614 20.4054 98.9799 21.8085C98.726 22.343 98.4721 22.9978 98.4187 23.2517C98.1915 24.3608 98.1514 23.7996 98.1514 19.804V15.5679L97.6837 14.6325C96.9888 13.2294 95.6392 11.9198 94.196 11.2383L93.0735 10.7038L91.0022 10.6637C89.8663 10.637 87.4744 10.637 85.6971 10.6503L82.4499 10.6904L83.1047 11.5056C83.4655 11.9466 83.8263 12.5613 83.9198 12.8686C84.294 14.2183 84.2138 34.3029 83.7862 43.4031C83.6793 45.755 83.6392 46.049 83.3185 46.7439C83.1314 47.1581 82.6637 47.8263 82.2761 48.2005L81.5946 48.9087H86.7127C89.5189 48.9087 91.804 48.9488 91.7773 49.0022C91.7639 49.069 91.5367 49.3898 91.2828 49.7372L90.8151 50.3786H81.6347H72.441L71.2784 49.6437L70.1024 48.9087H74.3251H78.5345L78.6147 44.7929C78.6548 42.5345 78.6681 40.6771 78.6548 40.6637C78.6414 40.6503 78.3741 40.9844 78.0534 41.4254C77.3719 42.3474 76.8508 42.7751 75.8218 43.2561C75.1536 43.5635 74.9532 43.5902 73.7906 43.5368C72.7216 43.4967 72.3741 43.4165 71.8129 43.1225C70.7839 42.6013 69.9421 41.5858 69.5813 40.4365C69.3006 39.5278 69.2873 39.3274 69.314 34.9577C69.3407 32.4722 69.3808 30.4009 69.4075 30.3608C69.5412 30.2405 71.4788 30.7216 72.1871 31.0557C73.2027 31.5368 73.9777 32.245 74.7127 33.3675L75.3407 34.343L75.4343 32.833C75.4744 32.0178 75.5011 29.8129 75.4744 27.9421L75.4343 24.5479L74.6993 25.4566C73.804 26.5791 73.0824 27.1537 72.0935 27.5145C71.1581 27.8619 69.5145 28.1425 69.3675 27.9822C69.3006 27.9154 69.2873 25.8174 69.3407 23.3185L69.4209 18.7751L69.7951 18C70.3029 16.9844 71.3051 15.9688 72.2539 15.5279C73.363 15.0334 74.7528 15.0201 75.7149 15.5279C76.3563 15.8619 77.9064 17.3719 77.9064 17.6526C77.9064 17.7327 78.0668 17.7728 78.2806 17.7461L78.6414 17.706L78.6815 14.1247L78.7082 10.5568H67.0423H55.3764L55.3897 13.7907C55.3897 15.9287 55.3363 17.118 55.2427 17.2918C55.1091 17.5056 55.069 17.4655 54.9487 16.931C54.7617 16.196 54.2539 12.3474 54.2539 11.6526C54.2539 10.5702 54.2405 10.5568 52.8374 10.5568H51.5813V9.91537C51.5679 8.84633 51.02 7.95101 50.0445 7.44322C49.6703 7.24277 50.432 7.22941 59.5724 7.21605H69.4877L69.9822 6.77507C70.3964 6.38754 70.4632 6.24054 70.4766 5.70602C70.49 5.03787 70.1692 4.46326 69.608 4.18264C69.3541 4.049 62.6058 4.00892 37.5501 4.02228C20.098 4.03564 5.66589 4.07574 5.47881 4.12919ZM7.363 5.15814C8.49886 5.73275 8.73939 6.93542 8.00442 8.39199L7.59017 9.2205L9.99552 11.5991L12.4009 13.9777L11.265 15.0334L10.1291 16.1025L7.75053 13.7639L5.37191 11.4254L4.7973 11.6526C4.00888 11.9599 2.96656 11.9599 2.49886 11.6526C1.99106 11.3051 1.48327 10.5969 1.38973 10.0624C1.26946 9.40758 1.65699 8.45881 2.17814 8.1381C2.41868 8.00447 2.93984 7.85747 3.36745 7.80402C4.12915 7.72384 4.14251 7.71048 4.14251 7.29622C4.15587 5.66594 5.11801 4.71716 6.54785 4.91761C6.80175 4.9577 7.17592 5.0646 7.363 5.15814ZM43.804 5.30513C43.6169 5.51894 43.363 5.83965 43.2294 6.0401L43.0022 6.41426H26.1113C9.72826 6.41426 9.22046 6.4009 9.22046 6.16037C9.22046 6.02674 9.07347 5.69266 8.88638 5.4254L8.56567 4.94433H26.3519H44.1514L43.804 5.30513ZM69.461 5.10469C69.6882 5.33186 69.6614 5.87975 69.3942 6.17373C69.1937 6.4009 68.6859 6.41426 58.9176 6.41426H48.6414L48.4543 5.95992C48.3474 5.70602 48.1336 5.37195 47.9866 5.22495L47.706 4.94433H58.5033C66.7216 4.94433 69.3407 4.98442 69.461 5.10469ZM47.0111 5.47885C47.559 5.81293 47.8396 6.45435 47.8396 7.34968V8.01783H48.5078C49.8842 8.01783 50.7795 8.75279 50.7795 9.90201V10.5568H48.6414C47.4655 10.5568 46.5033 10.5835 46.5033 10.6103C46.5033 10.6503 46.6369 10.8909 46.7839 11.1581L47.0779 11.6392L46.7572 11.559C46.4766 11.4922 46.1024 11.8263 43.9911 13.9376L41.5456 16.3831L40.4231 15.274L39.3006 14.1648L41.7862 11.7194L44.2717 9.27395L43.9643 8.37863C43.6169 7.33631 43.6704 6.7617 44.1915 6.13364C44.9799 5.19823 46.1158 4.93097 47.0111 5.47885ZM43.0557 8.11137L43.2695 9.02005L40.9577 11.3452L38.6592 13.657L37.6704 12.9889C32.432 9.42094 26.285 8.41872 19.9643 10.0891C17.9465 10.6236 15.0067 12.0267 13.5902 13.1359L13.069 13.5368L10.8641 11.3319L8.65921 9.12696L8.97993 8.17818L9.28728 7.21605H26.0579H42.8418L43.0557 8.11137ZM29.6659 10.49C34.8775 11.6392 39.1937 14.4588 42.147 18.6414C42.7082 19.4299 43.8975 21.5278 43.5234 21.0735C43.3496 20.8731 43.0156 20.8463 40.0891 20.8463C37.0289 20.8463 36.8552 20.8597 37.0289 21.0735C37.1358 21.2071 36.7349 20.8463 36.1603 20.2717C34.2761 18.4009 31.8173 16.9978 29.1314 16.2628C27.6748 15.8753 23.7728 15.8753 22.3162 16.2628C19.7372 16.9711 17.5323 18.1871 15.7283 19.8976L14.7394 20.8463H11.3719C9.52781 20.8463 8.01779 20.8062 8.01779 20.7528C8.01779 20.7127 8.29841 20.2183 8.64585 19.657C11.6793 14.7127 16.7706 11.3185 22.5835 10.3564C24.1069 10.1025 28.2628 10.1826 29.6659 10.49ZM160.236 10.8909C160.904 11.0646 161.492 11.2517 161.532 11.2918C161.599 11.3586 161.399 11.6125 160.37 12.7216C159.849 13.2962 159.688 13.216 159.688 12.3875C159.688 12.1203 159.635 11.8931 159.581 11.8931C159.381 11.8931 157.523 13.0958 156.307 14.0178C153.915 15.8218 152.285 17.5323 150.735 19.8441C150.08 20.8196 149.612 21.4477 149.853 21.0067C149.933 20.8864 149.586 20.8463 148.303 20.8463C147.167 20.8463 146.592 20.8998 146.459 21.0067C146.365 21.1002 146.379 21.0067 146.512 20.7929C146.646 20.5791 146.886 20.1915 147.033 19.9243C147.194 19.657 147.555 19.1091 147.849 18.7082C150.387 15.2339 154.009 12.7083 157.884 11.6927C158.552 11.5189 159.073 11.3319 159.073 11.265C159.06 11.2116 159.007 11.0245 158.953 10.8508C158.913 10.6904 158.9 10.5568 158.94 10.5568C158.967 10.5568 159.555 10.7038 160.236 10.8909ZM53.3719 11.9198C53.412 12.2405 53.5055 13.1225 53.5857 13.8976C53.8663 16.4766 54.7483 19.8575 55.1091 19.7372C55.1759 19.7105 55.4031 19.4031 55.6035 19.029C56.1113 18.1336 56.2717 16.9042 56.245 13.8976L56.2316 11.4254L59.0646 11.3853C61.3096 11.3586 61.8842 11.3853 61.8307 11.5189C61.4966 12.3341 61.2026 15.0601 60.9755 19.6437C60.922 20.7127 60.8552 21.4209 60.8285 21.2071L60.7884 20.8463H54.7216H48.6548L48.5879 20.2717C48.5479 19.9644 48.481 18.2272 48.441 16.4098C48.3741 13.363 48.2672 12.4276 47.9064 11.5858C47.8129 11.3719 47.9866 11.3586 50.5523 11.3586H53.3051L53.3719 11.9198ZM77.8263 12.3875C77.8663 12.9488 77.9064 13.9911 77.9064 14.7127V16.0223L77.0512 15.3809C76.0089 14.5924 75.1937 14.2985 74.0178 14.2985C71.8663 14.2985 70.0222 15.5679 68.9799 17.7461C68.5389 18.6682 68.4855 18.9221 68.4053 20.245C68.3652 21.0468 68.3251 21.5278 68.3118 21.2873L68.2851 20.8597L66.7216 20.8196L65.1447 20.7795L64.9176 17.5724C64.6503 13.7105 64.5434 13.1359 63.9421 12.1336L63.4877 11.3586H70.6102H77.7327L77.8263 12.3875ZM126.347 13.6303C126.401 14.8864 126.414 15.9555 126.374 15.9956C126.334 16.0356 126.067 15.8486 125.786 15.5813C125.506 15.314 124.944 14.9265 124.543 14.7261C123.902 14.4054 123.661 14.3653 122.539 14.3653C120.762 14.3653 119.973 14.6993 118.717 15.9555C117.541 17.1448 117.047 18.2138 116.953 19.8441L116.9 20.9131L115.35 20.8731C114.401 20.8463 113.786 20.8864 113.733 20.9666C113.679 21.0468 113.532 19.51 113.399 17.559C113.171 14.1247 112.984 12.9889 112.57 12.3207C112.463 12.1604 112.289 11.8797 112.169 11.6927L111.955 11.3586H119.105H126.254L126.347 13.6303ZM93.8084 11.9733C95.0646 12.6013 96.3474 13.8575 96.8552 14.9131C97.216 15.7016 97.216 15.7016 97.2294 18.9087C97.2294 20.6726 97.216 21.8352 97.1893 21.4744L97.1358 20.8463H95.4788C94.2761 20.8463 93.8218 20.8864 93.7684 21.0067C93.7416 21.1002 93.6748 20.4588 93.6214 19.5768C93.4877 17.3452 93.2873 16.7038 92.4321 15.8486C91.6704 15.0869 91.069 14.8463 89.706 14.7261L88.8641 14.6593L88.8508 15.1804C88.8374 16.0891 88.5033 21.461 88.4766 21.1403C88.4632 20.8463 88.4231 20.8463 86.873 20.8463H85.2695L85.216 21.2071C85.1759 21.461 85.1492 21.3809 85.1358 20.98C84.8418 12.7751 84.8552 12.8285 84.3875 11.7194C84.294 11.5056 84.5479 11.4922 88.5701 11.4922H92.8329L93.8084 11.9733ZM63.3006 12.8285C63.7149 13.6437 63.755 13.8575 63.9287 16.1025C64.343 20.9933 64.4499 25.0557 64.3697 32.3385C64.2895 40.3163 64.1024 44.8062 63.8084 45.6748C63.608 46.2762 62.7394 47.5724 62.5389 47.5724C62.2851 47.5724 62.1381 46.4766 62.0044 43.5902C61.5902 35.3452 61.6169 24.1203 62.0712 16.637C62.3786 11.4254 62.4588 11.1581 63.3006 12.8285ZM47.4922 14.0579C47.559 15.1804 47.5991 20.0045 47.5857 26.0178L47.5724 28.3296L47.118 28.1158C46.6904 27.902 46.6637 27.8352 46.5033 26.9131C45.9955 23.706 44.579 20.3653 42.628 17.7728L42.0802 17.0512L44.3786 14.7528C46.6637 12.4544 46.6904 12.441 47.0378 12.6281C47.3853 12.8018 47.412 12.882 47.4922 14.0579ZM91.2026 15.9822C91.8708 16.2895 92.4187 17.0913 92.6058 17.9866C92.7127 18.5078 92.7528 20.6058 92.7127 24.8953C92.6592 30.882 92.6459 31.0958 92.3652 31.8174C91.8975 33.0067 91.0022 33.6748 89.9198 33.6748H89.559L89.4655 31.2962C89.3586 28.8909 89.4655 19.1225 89.6258 16.8508L89.706 15.608L90.2004 15.6748C90.4677 15.7016 90.922 15.8486 91.2026 15.9822ZM28.4632 17.0646C31.9109 17.7595 34.7706 19.657 36.9487 22.6904C37.216 23.078 37.4165 23.4254 37.3764 23.4655C37.3363 23.5056 36.9621 23.4788 36.5345 23.3987C30.9755 22.4232 22.2761 22.3964 15.6614 23.3319C14.8329 23.4521 14.1247 23.5189 14.0846 23.4789C14.0579 23.4521 14.245 23.1047 14.4989 22.7172C17.0913 18.8686 21.7683 16.5301 26.3251 16.7973C26.9532 16.8241 27.9153 16.9443 28.4632 17.0646ZM109.042 24.7216C109.243 25.4566 109.189 26.3385 108.909 26.9532C108.775 27.274 108.628 27.5278 108.575 27.5278C108.535 27.5278 108.508 26.6726 108.508 25.6169C108.521 23.9198 108.535 23.7461 108.708 23.9866C108.828 24.1203 108.975 24.4543 109.042 24.7216ZM102.494 25.6838L102.481 27.461L102.2 26.9265C101.973 26.4989 101.933 26.2584 102 25.5234C102.067 24.7751 102.307 23.9198 102.454 23.9198C102.468 23.9198 102.494 24.7216 102.494 25.6838ZM29.7995 25.5234C35.9064 25.8708 41.0913 26.7929 45.2739 28.2762C47.7862 29.1581 47.7862 29.1581 45.8084 29.5056C44.2717 29.7728 41.7327 30.1336 40.6369 30.2272C40.196 30.2673 40.1826 30.2405 40.0222 29.6392C39.6614 28.1826 39.1403 27.902 36.2405 27.608C32.3385 27.2071 27.2205 27.0601 22.7305 27.2339C18.6548 27.3942 15.5144 27.6481 13.9376 27.9421C12.5612 28.196 11.3585 29.1715 11.3585 30.0267C11.3585 30.2673 11.2784 30.3341 10.9844 30.3341C9.94206 30.3341 4.34295 29.5056 4.16924 29.3319C4.06233 29.225 5.42536 28.6771 7.34964 28.0223C13.1626 26.0713 22.0356 25.0824 29.7995 25.5234ZM112.877 32.2316C112.837 35.853 112.73 40.2628 112.65 42.0267C112.503 44.9131 112.463 45.3007 112.183 45.9287C111.835 46.6904 110.953 47.8396 110.713 47.8396C110.592 47.8396 108.668 46.5167 108.254 46.1559C108.214 46.1158 108.548 41.6927 108.735 39.9154L108.815 39.1537H109.724C110.445 39.1537 110.646 39.1136 110.646 38.9532C110.646 38.7528 109.898 35.1314 109.764 34.7038C109.697 34.5033 109.804 34.4766 110.779 34.4766H111.862L111.381 33.6348C111.127 33.167 110.913 32.7394 110.913 32.6993C110.913 32.6459 111.06 32.6058 111.22 32.6058C111.394 32.6058 111.568 32.5657 111.621 32.5256C111.661 32.4855 111.461 31.9911 111.18 31.4299L110.673 30.4143L111.194 29.7327C111.782 28.9443 112.41 27.5278 112.664 26.4187C112.744 26.0045 112.851 25.657 112.891 25.657C112.931 25.657 112.918 28.6236 112.877 32.2316ZM98.4187 26.686C98.7127 27.6748 99.4476 29.1314 99.9554 29.706C100.169 29.9599 100.356 30.2138 100.356 30.2673C100.356 30.3074 100.116 30.7617 99.8218 31.2695C99.5278 31.7773 99.2873 32.245 99.2873 32.3252C99.2873 32.4054 99.4744 32.4722 99.6882 32.4722C99.9153 32.4722 100.089 32.4989 100.089 32.5256C100.089 32.5523 99.8753 32.9265 99.6214 33.3541L99.1403 34.1425L100.116 34.2094C100.877 34.2628 101.091 34.3163 101.065 34.4766C101.051 34.5835 100.877 35.5724 100.69 36.6815C100.503 37.7773 100.33 38.7795 100.316 38.8864C100.29 39.0468 100.49 39.1002 101.225 39.1537L102.16 39.2205L102.388 42.0267C102.521 43.5635 102.615 45.0601 102.588 45.3408L102.561 45.8486L100.891 46.5167C99.0868 47.2383 98.6191 47.5991 98.6191 48.2539C98.6191 48.7617 99.2606 49.4432 99.7283 49.4432C99.9153 49.4432 101.292 49.029 102.788 48.5212L105.501 47.6125L106.971 48.5746L108.441 49.5368L109.684 49.4699C110.779 49.4165 110.913 49.3898 110.913 49.1626C110.913 48.9221 111.073 48.9087 115.016 48.9087H119.118L118.583 49.2962C118.29 49.5234 117.969 49.8441 117.862 50.0312L117.688 50.3786H108.681H99.6748L98.7127 49.7238C97.3363 48.8018 96.441 48.3742 95.3586 48.147C94.2361 47.9198 93.608 47.9866 92.6459 48.4543L91.9376 48.7884L91.5501 48.5212C91.3363 48.3608 90.8819 47.9332 90.5479 47.559C89.5991 46.5167 89.5323 46.1158 89.5323 42.0935V38.6592L91.0423 38.5791C92.8597 38.4855 94.0089 38.1515 95.1314 37.4031C96.1336 36.735 96.8686 35.8931 97.4966 34.7038C98.098 33.5546 98.2583 32.1515 98.1915 28.5033C98.1782 27.0869 98.1648 25.9243 98.1781 25.9243C98.1915 25.9243 98.2984 26.2717 98.4187 26.686ZM31.1358 28.0624C34.9977 28.2494 38.2049 28.5702 38.579 28.8107C39.1804 29.1982 39.3274 29.7327 39.2472 31.2027C39.0601 34.49 37.657 37.6169 35.2917 39.9555C33.5144 41.706 31.216 42.9889 28.7438 43.5902C27.1269 43.9911 24.3207 43.9911 22.7171 43.5902C20.1648 42.9621 17.9866 41.7595 16.1559 39.9421C13.7238 37.5368 12.3741 34.6103 12.2004 31.363C12.1202 29.9733 12.1336 29.9198 12.441 29.5724C13.0957 28.8642 14.0846 28.6236 17.5055 28.3296C21.7416 27.9555 26.8329 27.8619 31.1358 28.0624ZM47.5189 32.833C47.3719 37.2294 47.0378 44.0579 46.9042 45.3007C46.7038 47.3051 46.8507 47.3185 44.5657 45.0334C42.8151 43.2829 42.5879 43.0022 42.7216 42.7884C44.245 40.6236 45.5011 37.9777 46.049 35.8396C46.4766 34.1826 46.7706 32.245 46.7706 31.1225C46.7706 30.147 46.8107 30.0668 47.2784 30.0668H47.6124L47.5189 32.833ZM152.205 32.2049V33.5412H153.581H154.944V34.8508C154.944 36.4143 155.198 37.2561 155.973 38.2316L156.508 38.9131L155.612 41.1715C155.118 42.4143 154.677 43.4298 154.61 43.4298C154.383 43.4298 152.445 41.2249 151.737 40.1693C150.08 37.6704 149.198 35.118 148.784 31.6303L148.704 30.8686H150.454H152.205V32.2049ZM155.532 31.029C155.532 31.1225 155.412 31.6169 155.278 32.1381L155.024 33.0735V31.9644C155.011 30.9488 155.038 30.8686 155.278 30.8686C155.425 30.8686 155.546 30.9488 155.532 31.029ZM54.4543 43.4298C54.7216 44.3519 55.216 45.9555 55.5367 46.9978L56.1514 48.9087H60.0401H63.9287L63.2071 49.6437L62.4855 50.3786H56.8597H51.2472V49.6437V48.9087H52.6369H54.0133L53.9332 48.4009C53.7728 47.4788 53.6793 41.4788 53.8263 41.6258C53.9064 41.6927 54.1871 42.5078 54.4543 43.4298ZM42.6815 44.2851C42.9755 44.6058 43.8842 45.5278 44.6859 46.343L46.1292 47.8263L45.5545 48.3608L44.9666 48.9087H47.6659H50.3519L50.4454 49.3229C50.7528 50.686 49.7773 51.7149 48.2138 51.7149C47.7193 51.7149 47.706 51.7283 47.706 52.196V52.6904L46.9844 52.5969C46.2494 52.5167 44.9131 52.1425 44.0312 51.7684L43.5501 51.5679L43.8975 50.9532L44.2583 50.3519L42.0935 48.1737L39.9153 45.9956L40.971 44.8463C41.5456 44.2183 42.0534 43.7105 42.0802 43.6971C42.1069 43.6971 42.3741 43.9644 42.6815 44.2851ZM31.216 44.245C31.3229 44.4722 31.3764 44.7127 31.3095 44.7795C31.1492 44.9399 29.7461 45.2873 29.6525 45.1804C29.5991 45.1403 29.5189 44.9131 29.4788 44.686C29.3853 44.2984 29.412 44.2717 30.0267 44.0713C30.922 43.7773 30.9621 43.7773 31.216 44.245ZM10.7038 45.0601L11.7728 46.1559L9.68817 48.2272L7.6169 50.2984L7.88416 51.0735C8.21823 52.049 8.21823 52.2895 7.87079 53.0111C7.33627 54.1069 5.83961 54.6013 4.85075 53.9866C4.2895 53.6526 4.11578 53.2918 4.02224 52.3163L3.94206 51.5145L3.07347 51.4477C2.04451 51.3675 1.7238 51.2071 1.34964 50.5924C0.815115 49.7238 1.04229 48.4143 1.85743 47.6392C2.2316 47.2918 2.39195 47.2383 3.04674 47.2383C3.64808 47.2517 3.98215 47.3452 4.59685 47.6793L5.38527 48.0935L7.40309 46.0356C8.51222 44.8998 9.47436 43.9777 9.52781 43.9644C9.58126 43.9644 10.1158 44.4588 10.7038 45.0601ZM21.608 44.1381C22.0222 44.2984 22.0222 44.2984 21.8352 44.7528C21.6347 45.2205 21.5278 45.2339 20.6459 44.8998C20.2984 44.7662 20.2984 44.7662 20.5389 44.3653C20.7928 43.9376 20.9532 43.8976 21.608 44.1381ZM24.3608 44.7261C24.4142 44.7528 24.4543 44.9933 24.4543 45.2606C24.4543 45.7149 24.441 45.7283 24.0668 45.6615C23.8663 45.6214 23.3853 45.5412 22.9977 45.4878C22.6236 45.4343 22.2761 45.3541 22.2494 45.2873C22.2093 45.2339 22.2494 45.0201 22.343 44.833C22.5033 44.4855 22.5167 44.4722 23.3853 44.5657C23.8663 44.6192 24.294 44.686 24.3608 44.7261ZM28.9844 44.9265C29.0646 45.1537 29.118 45.3541 29.1046 45.3675C29.0779 45.3942 28.6637 45.461 28.1559 45.5278C27.2739 45.6481 27.2472 45.6481 27.1804 45.3408C27.02 44.7261 27.2205 44.5924 28.49 44.5256C28.7706 44.4989 28.8641 44.5791 28.9844 44.9265ZM26.726 45.2339C26.726 45.6214 26.6726 45.6882 26.3385 45.7684C26.1247 45.8085 25.7372 45.8085 25.4699 45.755C25.0289 45.6748 24.9888 45.6347 24.9888 45.2205V44.7795L25.7639 44.7394C26.1781 44.7127 26.5657 44.7127 26.6325 44.7394C26.6859 44.7662 26.726 44.98 26.726 45.2339ZM27.3675 46.8641C27.7283 48.5345 27.7283 48.4543 27.2606 48.5613C26.7394 48.6548 24.5345 48.6682 24.4276 48.5746C24.3474 48.4944 24.6681 46.5702 24.7884 46.3697C24.8285 46.2895 25.4031 46.2361 26.0579 46.2361H27.2338L27.3675 46.8641ZM29.2116 47.1314C30.3073 47.8797 30.4677 48.0401 30.2405 48.1203C29.8129 48.2806 28.3296 48.4677 28.2628 48.3875C28.196 48.2806 27.7951 46.5301 27.7951 46.3564C27.7951 46.1693 27.8218 46.1826 29.2116 47.1314ZM41.2917 48.441L43.2294 50.3786H42.0534C40.7438 50.3786 40.5434 50.2984 38.2316 48.9354L36.9755 48.1871L37.3496 47.9065C37.5634 47.7595 38.0579 47.3853 38.4721 47.078C38.8864 46.7706 39.2472 46.5167 39.2873 46.5033C39.3274 46.5033 40.2227 47.3719 41.2917 48.441ZM13.1626 47.2383C13.4966 47.4788 13.951 47.7996 14.1648 47.9332C14.392 48.0535 14.5523 48.2138 14.5389 48.2673C14.5122 48.3207 13.9643 48.8152 13.2962 49.3764L12.0935 50.3786H10.3563H8.61912L10.4231 48.5746C11.412 47.5858 12.294 46.7706 12.3875 46.7706C12.481 46.7706 12.8285 46.9844 13.1626 47.2383ZM23.9465 47.8396L23.8396 48.441L23.1447 48.4009C22.7706 48.3875 22.3162 48.3207 22.1559 48.2539C21.8752 48.147 21.9153 48.1069 22.6503 47.6392C23.0913 47.3719 23.5724 47.0646 23.7193 46.9711C24.0534 46.7572 24.1069 46.9577 23.9465 47.8396ZM31.5768 48.6949C31.8975 48.9354 31.8708 49.1359 31.3897 50.0846C30.4677 51.9287 28.5701 52.9577 26.0579 52.9711C23.4788 52.9711 21.4476 51.902 20.1247 49.8174L19.8975 49.4699L20.5122 49.0423L21.1136 48.6281L22.5568 48.8552C24.481 49.176 27.6481 49.1492 29.3986 48.8018C30.9621 48.4811 31.2695 48.4677 31.5768 48.6949ZM33.755 50.1782C33.9822 50.3519 33.9287 50.3653 33.1403 50.3653L32.2717 50.3519L32.7394 50.1782C33.3541 49.9376 33.4476 49.9376 33.755 50.1782ZM19.069 50.3252C19.0289 50.3653 18.9087 50.3786 18.8151 50.3385C18.7082 50.2984 18.7483 50.2584 18.8953 50.2584C19.0423 50.245 19.1225 50.2851 19.069 50.3252ZM146.325 53.6927C146.325 53.8396 144.681 54.6414 143.586 55.0156C141.555 55.7105 138.788 55.9243 136.811 55.5368C135.501 55.2695 133.644 54.6281 132.762 54.1203C132.361 53.8931 132.027 53.6793 132.027 53.6392C132.027 53.6125 135.247 53.5858 139.176 53.5858C143.105 53.5858 146.325 53.6392 146.325 53.6927Z" fill="black"/>
<path d="M18.441 30.5078C17.1849 30.8686 16.1292 31.8174 15.5278 33.127C15.1269 34.0089 15.0735 35.3987 15.4209 36.3341C15.9154 37.6838 17.1849 38.8063 18.6147 39.1671C20.5256 39.6348 22.6637 38.6058 23.5991 36.7884C23.9466 36.1069 23.9866 35.8797 23.9866 34.8107C23.9866 33.7016 23.9599 33.5412 23.5323 32.7661C23.2784 32.3118 22.8641 31.7372 22.5969 31.51C21.5278 30.5746 19.7372 30.1336 18.441 30.5078Z" fill="black"/>
<path d="M30.6815 30.5479C29.412 30.9488 28.4232 31.8307 27.8486 33.0735C27.461 33.8886 27.4076 35.4254 27.7417 36.4009C28.0356 37.2561 29.0913 38.3786 30.0401 38.8463C30.6949 39.167 30.9622 39.2205 31.9377 39.2205C32.9265 39.2205 33.1804 39.167 33.8486 38.833C34.7573 38.3653 35.5858 37.5234 35.9867 36.6414C36.2138 36.147 36.2806 35.7595 36.2806 34.8107C36.2806 33.7417 36.2406 33.5145 35.8931 32.833C35.6659 32.4054 35.2517 31.8441 34.9711 31.5768C33.8218 30.5479 32.0312 30.1203 30.6815 30.5479Z" fill="black"/>
<path d="M24.882 38.7528C24.4276 39.0334 24.0535 39.715 24.0535 40.2495C24.0535 40.7038 24.5212 41.3853 24.9755 41.6259C26.1381 42.2272 27.3942 41.4655 27.3942 40.1559C27.3942 38.8464 26.0045 38.0713 24.882 38.7528Z" fill="black"/>
<path d="M114.534 4.18263C113.439 4.74387 113.359 6.48107 114.414 7.02895C114.722 7.18931 118.41 7.21603 139.256 7.21603H163.724L164.178 6.76169C164.552 6.38753 164.632 6.20044 164.632 5.75946C164.632 5.45211 164.539 5.0245 164.432 4.81069C163.991 3.95545 165.848 4.00891 139.149 4.00891C120.134 4.00891 114.788 4.049 114.534 4.18263ZM163.697 5.19822C163.884 5.57238 163.857 5.89309 163.604 6.17372C163.403 6.40089 162.468 6.41425 139.216 6.41425C122.806 6.41425 114.949 6.37416 114.775 6.28062C114.481 6.12027 114.414 5.37194 114.681 5.10467C114.802 4.98441 120.428 4.94432 139.203 4.94432C163.136 4.94432 163.55 4.94432 163.697 5.19822Z" fill="black"/>
<path d="M133.657 11.0913C132.254 11.4655 131.425 11.9599 130.276 13.0958C129.474 13.8842 129.14 14.3385 128.713 15.2339C127.644 17.4388 127.497 18.9354 127.39 28.2762C127.31 35.1715 127.457 39.9555 127.804 42.1336C128.232 44.6993 129.795 47.0245 131.853 48.147C133.403 48.9755 135.648 49.2561 137.546 48.8285C140.205 48.2272 142.37 46.1292 143.105 43.4298C143.358 42.5212 143.385 42.0534 143.385 38.3519C143.385 36.1069 143.345 33.9688 143.305 33.608L143.225 32.9399L139.67 32.98C137.706 33.0067 136.089 33.0468 136.062 33.0735C136.036 33.1002 136.156 33.3274 136.343 33.5679C137.145 34.6236 137.238 34.9978 137.238 37.657C137.238 40.4232 137.145 40.7706 136.37 41.1047C135.367 41.5189 134.419 41.1982 134.044 40.3296C133.817 39.8218 133.791 39.1938 133.724 34.4766C133.617 27.3274 133.804 19.7506 134.111 18.9889C134.512 17.9866 135.595 17.5323 136.396 18.0267C137.198 18.5212 137.305 18.922 137.305 21.314C137.305 23.6659 137.225 23.9599 136.263 25.1759L135.848 25.6971L137.091 25.6169C137.786 25.5635 139.51 25.5234 140.94 25.5234H143.519V21.2739C143.519 17.1581 143.505 17.0111 143.198 16.1425C142.436 13.9644 140.392 12.0267 138.04 11.2249C136.797 10.7973 134.94 10.7439 133.657 11.0913ZM137.091 11.8263C139.109 12.3074 141.14 13.8975 142.049 15.6882L142.517 16.6236L142.53 19.029C142.543 20.3653 142.53 21.314 142.49 21.1403C142.436 20.8463 142.396 20.8463 140.432 20.8463C138.935 20.8463 138.441 20.8864 138.428 21.0067C138.414 21.1002 138.361 20.6993 138.307 20.1114C138.134 18.147 137.158 16.971 135.688 16.971C135.127 16.971 134.352 17.2784 133.911 17.6793C133.376 18.1737 132.962 19.216 132.962 20.0713V20.8463H130.757H128.552V19.7372C128.552 18.3875 128.913 16.8909 129.555 15.5278C130.891 12.6949 134.098 11.1314 137.091 11.8263Z" fill="black"/>
</svg>
