<svg width="45" height="50" viewBox="0 0 45 50" fill="none" xmlns="http://www.w3.org/2000/svg">
<g clip-path="url(#clip0)">
<path d="M0 43.5529C0 47.1139 2.583 50 5.76914 50H38.973C42.1597 50 44.7423 47.1135 44.7423 43.5529V6.44727C44.7423 2.88613 42.1593 0 38.9732 0H5.76931C2.58265 0 0 2.88652 0 6.44707V43.5527V43.5529Z" fill="#563D7C"/>
<path d="M18.5537 22.1168V15.0361H24.131C24.6623 15.0361 25.1744 15.0855 25.6676 15.1846C26.1608 15.2834 26.5973 15.46 26.9767 15.7145C27.356 15.9689 27.6595 16.3223 27.8873 16.7744C28.1148 17.2268 28.2288 17.8063 28.2288 18.5127C28.2288 19.7848 27.8873 20.7035 27.2043 21.2688C26.5214 21.8342 25.6488 22.1168 24.5863 22.1168H18.5537V22.1168ZM12.5969 9.86328V40.1367H25.7246C26.9388 40.1367 28.1213 39.9672 29.2722 39.6279C30.4231 39.2887 31.4475 38.7658 32.3455 38.0592C33.2433 37.3525 33.9579 36.4408 34.4891 35.3244C35.0204 34.2078 35.2859 32.8863 35.2859 31.36C35.2859 29.466 34.8748 27.8479 34.0528 26.5053C33.2307 25.1625 31.9849 24.2227 30.3154 23.6855C31.5296 23.0355 32.4466 22.2016 33.0664 21.184C33.686 20.1664 33.9959 18.8945 33.9959 17.368C33.9959 15.9547 33.7872 14.7676 33.3698 13.8064C32.9524 12.8455 32.3643 12.0752 31.6055 11.4957C30.8468 10.9162 29.9362 10.4992 28.8737 10.2449C27.8114 9.99043 26.6352 9.86328 25.3452 9.86328H12.5969V9.86328ZM18.5537 34.9639V26.6535H25.0416C26.3316 26.6535 27.3687 26.9855 28.1529 27.65C28.937 28.3143 29.3292 29.4236 29.3292 30.9783C29.3292 31.7699 29.2089 32.4199 28.9686 32.9287C28.7283 33.4375 28.4058 33.8404 28.0011 34.1371C27.5965 34.434 27.1284 34.6459 26.5973 34.7732C26.0659 34.9002 25.5096 34.9639 24.9278 34.9639H18.5537V34.9639Z" fill="white"/>
</g>
<defs>
<clipPath id="clip0">
<rect width="44.7423" height="50" rx="8" fill="white"/>
</clipPath>
</defs>
</svg>
