<svg width="45" height="50" viewBox="0 0 40 50" fill="none" xmlns="http://www.w3.org/2000/svg">
<path fill-rule="evenodd" clip-rule="evenodd" d="M36.1016 44.6331L39.621 0.577865L39.667 0H39.1485H0.518528H0L0.046053 0.577865L3.56162 44.6403L3.59093 45.0078L3.90762 45.1058L19.6835 50H19.9366L35.7555 45.0986L36.0722 45.0007L36.1016 44.6331Z" fill="#1572B6"/>
<path fill-rule="evenodd" clip-rule="evenodd" d="M36.61 3.12494H19.8336V46.7889L33.4591 42.5673L36.61 3.12494Z" fill="#35A8DB"/>
<path fill-rule="evenodd" clip-rule="evenodd" d="M19.8148 14.8555L7.98218 20.3626L8.37466 25.8149L19.8148 20.3487L31.9841 14.5344L32.4886 8.95691L19.8148 14.8555Z" fill="#E9E9E8"/>
<path fill-rule="evenodd" clip-rule="evenodd" d="M19.8149 8.95697H19.9026H20.0025H20.1021H20.202H20.3019H20.4019H20.5018H20.6017H20.7016H20.8015H20.9014H21.0013H21.1012H21.2012H21.3011H21.401H21.5006H21.6005H21.7004H21.8003H21.9003H22.0002H22.1001H22.2H22.2999H22.3998H22.4997H22.5994H22.6993H22.7992H22.8991H22.999H23.0989H23.1988H23.2988H23.3987H23.4986H23.5985H23.6984H23.7983H23.8982H23.9981H24.0978H24.1977H24.2976H24.3975H24.4974H24.5973H24.6972H24.7972H24.8971H24.997H25.0969H25.1968H25.2967H25.3963H25.4963H25.5962H25.6961H25.796H25.8959H25.9958H26.0957H26.1956H26.2956H26.3955H26.4954H26.595H26.6949H26.7948H26.8947H26.9947H27.0946H27.1945H27.2944H27.3943H27.4942H27.5941H27.6941H27.794H27.8939H27.9935H28.0934H28.1933H28.2932H28.3932H28.4931H28.593H28.6929H28.7928H28.8927H28.9926H29.0925H29.1922H29.2921H29.392H29.4919H29.5918H29.6917H29.7916H29.8916H29.9915H30.0914H30.1913H30.2912H30.3911H30.491H30.5907H30.6906H30.7905H30.8904H30.9903H31.0902H31.1901H31.29H31.39H31.4899H31.5898H31.6897H31.7896H31.8895H31.9891H32.0891H32.189H32.2889H32.3888H32.4887L32.3888 10.0609L32.2889 11.1648L32.189 12.2687L32.0891 13.3729L31.9891 14.4768L31.9842 14.5342H31.8895H31.7896H31.6897H31.5898H31.4899H31.39H31.29H31.1901H31.0902H30.9903H30.8904H30.7905H30.6906H30.5907H30.491H30.3911H30.2912H30.1913H30.0914H29.9915H29.8916H29.7916H29.6917H29.5918H29.4919H29.392H29.2921H29.1922H29.0925H28.9926H28.8927H28.7928H28.6929H28.593H28.4931H28.3932H28.2932H28.1933H28.0934H27.9935H27.8939H27.794H27.6941H27.5941H27.4942H27.3943H27.2944H27.1945H27.0946H26.9947H26.8947H26.7948H26.6949H26.595H26.4954H26.3955H26.2956H26.1956H26.0957H25.9958H25.8959H25.796H25.6961H25.5962H25.4963H25.3963H25.2967H25.1968H25.0969H24.997H24.8971H24.7972H24.6972H24.5973H24.4974H24.3975H24.2976H24.1977H24.0978H23.9981H23.8982H23.7983H23.6984H23.5985H23.4986H23.3987H23.2988H23.1988H23.0989H22.999H22.8991H22.7992H22.6993H22.5994H22.4997H22.3998H22.2999H22.2H22.1001H22.0002H21.9003H21.8003H21.7004H21.6005H21.5006H21.401H21.3011H21.2012H21.1012H21.0013H20.9014H20.8015H20.7016H20.6017H20.5047H20.5018H20.4019H20.3019H20.202H20.1021H20.0025H19.9026H19.8295H19.8149H19.8027H19.7028H19.6028H19.5029H19.403H19.3031H19.2032H19.1034H19.0035H18.9036H18.8037H18.7038H18.6039H18.5041H18.4042H18.3043H18.2044H18.1045H18.0046H17.9047H17.8048H17.7049H17.605H17.5051H17.4053H17.3053H17.2055H17.1056H17.0057H16.9058H16.8059H16.706H16.6061H16.5062H16.4063H16.3064H16.2066H16.1066H16.0068H15.9069H15.807H15.7071H15.6072H15.5073H15.4074H15.3075H15.2077H15.1077H15.0079H14.908H14.8081H14.7082H14.6083H14.5084H14.4085H14.3086H14.2087H14.1089H14.009H13.9091H13.8092H13.7093H13.6094H13.5095H13.4096H13.3097H13.2098H13.1099H13.01H12.9102H12.8103H12.7104H12.6105H12.5106H12.4107H12.3108H12.2109H12.111H12.0111H11.9113H11.8113H11.7115H11.6116H11.5117H11.4118H11.3119H11.212H11.1121H11.0122H10.9123H10.8124H10.7126H10.6127H10.5128H10.4129H10.313H10.2131H10.1132H10.0133H9.91344H9.81353H9.71367H9.61376H9.51387H9.41399H9.31408H9.21419H9.11431H9.01443H8.91451H8.81463H8.71475H8.61483H8.51498H8.41509H8.31518H8.21527H8.11538H8.01553H7.91562H7.81573H7.71585H7.61593H7.5335L7.51608 14.3765L7.41617 13.4731L7.31628 12.5699L7.21637 11.6664L7.11649 10.7633L7.01663 9.86016L6.91675 8.95697H7.01663H7.11649H7.21637H7.31628H7.41617H7.51608H7.61593H7.71585H7.81573H7.91562H8.01553H8.11538H8.21527H8.31518H8.41509H8.51498H8.61483H8.71475H8.81463H8.91451H9.01443H9.11431H9.21419H9.31408H9.41399H9.51387H9.61376H9.71367H9.81353H9.91344H10.0133H10.1132H10.2131H10.313H10.4129H10.5128H10.6127H10.7126H10.8124H10.9123H11.0122H11.1121H11.212H11.3119H11.4118H11.5117H11.6116H11.7115H11.8113H11.9113H12.0111H12.111H12.2109H12.3108H12.4107H12.5106H12.6105H12.7104H12.8103H12.9102H13.01H13.1099H13.2098H13.3097H13.4096H13.5095H13.6094H13.7093H13.8092H13.9091H14.009H14.1089H14.2087H14.3086H14.4085H14.5084H14.6083H14.7082H14.8081H14.908H15.0079H15.1077H15.2077H15.3075H15.4074H15.5073H15.6072H15.7071H15.807H15.9069H16.0068H16.1066H16.2066H16.3064H16.4063H16.5062H16.6061H16.706H16.8059H16.9058H17.0057H17.1056H17.2055H17.3053H17.4053H17.5051H17.605H17.7049H17.8048H17.9047H18.0046H18.1045H18.2044H18.3043H18.4042H18.5041H18.6039H18.7038H18.8037H18.9036H19.0035H19.1034H19.2032H19.3031H19.403H19.5029H19.6028H19.7028H19.8027H19.8149Z" fill="#E9E9E8"/>
<path fill-rule="evenodd" clip-rule="evenodd" d="M8.00037 20.3633H31.5543L31.1252 25.8776L8.39283 25.8148L8.00037 20.3633Z" fill="#E9E9E8"/>
<path fill-rule="evenodd" clip-rule="evenodd" d="M8.73627 28.8865L13.8887 28.8888L14.2249 33.3976L19.8148 34.9467L25.5535 33.1469L25.9418 25.7735L31.1403 25.6824L30.2081 37.659L19.8334 41.0434L9.38396 37.5965L8.73627 28.8865Z" fill="#E9E9E8"/>
<path fill-rule="evenodd" clip-rule="evenodd" d="M19.8336 20.3397L31.9843 14.5344L32.4888 8.95691L19.8336 14.8468V20.3397Z" fill="#FFFFFE"/>
<path fill-rule="evenodd" clip-rule="evenodd" d="M19.8336 8.95697H19.9027H20.0026H20.1022H20.2021H20.302H20.4019H20.5018H20.6018H20.7017H20.8016H20.9015H21.0014H21.1013H21.2012H21.3011H21.4011H21.5007H21.6006H21.7005H21.8004H21.9003H22.0002H22.1002H22.2001H22.3H22.3999H22.4998H22.5994H22.6993H22.7993H22.8992H22.9991H23.099H23.1989H23.2988H23.3987H23.4986H23.5986H23.6985H23.7984H23.8983H23.9982H24.0978H24.1977H24.2977H24.3976H24.4975H24.5974H24.6973H24.7972H24.8971H24.9971H25.097H25.1969H25.2968H25.3964H25.4963H25.5962H25.6962H25.7961H25.896H25.9959H26.0958H26.1957H26.2956H26.3955H26.4955H26.5951H26.695H26.7949H26.8948H26.9947H27.0946H27.1946H27.2945H27.3944H27.4943H27.5942H27.6941H27.794H27.8939H27.9936H28.0935H28.1934H28.2933H28.3932H28.4931H28.593H28.693H28.7929H28.8928H28.9927H29.0926H29.1922H29.2921H29.3921H29.492H29.5919H29.6918H29.7917H29.8916H29.9915H30.0915H30.1914H30.2913H30.3912H30.4911H30.5907H30.6906H30.7906H30.8905H30.9904H31.0903H31.1902H31.2901H31.39H31.4899H31.5899H31.6898H31.7897H31.8896H31.9892H32.0891H32.189H32.289H32.3889H32.4888L32.3889 10.0609L32.289 11.1648L32.189 12.2687L32.0891 13.3729L31.9892 14.4768L31.9843 14.5342H31.8896H31.7897H31.6898H31.5899H31.4899H31.39H31.2901H31.1902H31.0903H30.9904H30.8905H30.7906H30.6906H30.5907H30.4911H30.3912H30.2913H30.1914H30.0915H29.9915H29.8916H29.7917H29.6918H29.5919H29.492H29.3921H29.2921H29.1922H29.0926H28.9927H28.8928H28.7929H28.693H28.593H28.4931H28.3932H28.2933H28.1934H28.0935H27.9936H27.8939H27.794H27.6941H27.5942H27.4943H27.3944H27.2945H27.1946H27.0946H26.9947H26.8948H26.7949H26.695H26.5951H26.4955H26.3955H26.2956H26.1957H26.0958H25.9959H25.896H25.7961H25.6962H25.5962H25.4963H25.3964H25.2968H25.1969H25.097H24.9971H24.8971H24.7972H24.6973H24.5974H24.4975H24.3976H24.2977H24.1977H24.0978H23.9982H23.8983H23.7984H23.6985H23.5986H23.4986H23.3987H23.2988H23.1989H23.099H22.9991H22.8992H22.7993H22.6993H22.5994H22.4998H22.3999H22.3H22.2001H22.1002H22.0002H21.9003H21.8004H21.7005H21.6006H21.5007H21.4011H21.3011H21.2012H21.1013H21.0014H20.9015H20.8016H20.7017H20.6018H20.5048H20.5018H20.4019H20.302H20.2021H20.1022H20.0026H19.9027H19.8336V8.95697Z" fill="#FFFFFE"/>
<path fill-rule="evenodd" clip-rule="evenodd" d="M19.8336 20.3633H31.5543L31.1252 25.8776L19.8336 25.8464V20.3633Z" fill="#FFFFFE"/>
<path fill-rule="evenodd" clip-rule="evenodd" d="M19.8336 34.9409L25.5537 33.1469L25.942 25.7735L31.1404 25.6824L30.2083 37.659L19.8336 41.0434V41.0431V34.9409Z" fill="#FFFFFE"/>
</svg>
