<svg width="45" height="50" viewBox="0 0 45 50" fill="none" xmlns="http://www.w3.org/2000/svg">
<g clip-path="url(#clip0)">
<path fill-rule="evenodd" clip-rule="evenodd" d="M6.99058 37.8516V34.6875C6.99058 34.2578 7.23526 33.9453 7.61977 33.9453H7.72463C8.10914 33.9453 8.35382 34.2969 8.35382 34.6875V41.3281C8.35382 42.9297 7.65472 44.2188 6.39634 45.0391C5.80211 45.4297 5.17292 45.625 4.50878 45.625H4.22914C2.79599 45.625 1.64247 44.8437 0.908418 43.4375C0.558869 42.7734 0.384094 42.0703 0.384094 41.3281V41.0156C0.384094 39.4141 1.08319 38.125 2.34157 37.3047C2.93581 36.9141 3.56499 36.7187 4.22914 36.7187H4.50878C5.45256 36.7578 6.29148 37.1484 6.99058 37.8516V37.8516ZM1.71238 41.1719C1.71238 42.3438 2.23671 43.2031 3.14554 43.7891C3.53004 44.0234 3.91454 44.1406 4.334 44.1406C5.3477 44.1406 6.11671 43.5937 6.64103 42.6172C6.88571 42.1484 6.99058 41.6797 6.99058 41.1328C6.99058 40.1172 6.57112 39.3359 5.83707 38.75C5.38265 38.3984 4.89328 38.2031 4.36896 38.2031C3.2504 38.2031 2.44644 38.8281 1.95707 39.9609C1.78229 40.3516 1.71238 40.7813 1.71238 41.1719V41.1719ZM12.9679 36.7578H13.1426C14.6807 36.7578 15.8691 37.5781 16.6032 39.1016C16.9178 39.6875 17.0576 40.3516 17.0576 41.0547V41.3672C17.0576 42.9688 16.3585 44.2578 15.1001 45.0781C14.5059 45.4688 13.8767 45.6641 13.2126 45.6641H12.9329C11.4998 45.6641 10.3463 44.8828 9.6122 43.4766C9.26265 42.8125 9.08788 42.1094 9.08788 41.3672V41.0547C9.08788 39.4531 9.82193 38.1641 11.0454 37.3437C11.6396 36.9141 12.3037 36.7578 12.9679 36.7578ZM10.4511 41.1719C10.4511 42.3047 10.9405 43.125 11.8144 43.7109C12.2338 43.9844 12.6533 44.1016 13.1426 44.1016C14.1563 44.1016 14.8904 43.5156 15.4147 42.5781C15.6594 42.1094 15.7643 41.6406 15.7643 41.0937C15.7643 40.0391 15.3099 39.2188 14.5408 38.6328C14.1214 38.3203 13.632 38.1641 13.1426 38.1641C12.0241 38.1641 11.2201 38.7891 10.7308 39.9219C10.521 40.3516 10.4511 40.7813 10.4511 41.1719ZM22.6154 38.3594C22.4057 38.2422 22.0212 38.2031 21.8115 38.2031C20.6929 38.1641 19.889 38.8672 19.3996 39.9609C19.2248 40.3516 19.1549 40.7422 19.1549 41.1719C19.1549 42.4609 19.7491 43.3594 20.7628 43.9063C21.1473 44.1016 21.6017 44.1406 22.0212 44.1406C22.3708 44.1406 22.8951 43.9063 23.2097 43.7109L23.2796 43.6719H23.5592C23.8738 43.75 24.0835 43.9453 24.0835 44.3359V44.4922C24.0835 45.3906 22.5805 45.625 22.0212 45.6641C20.0288 45.8203 18.5257 44.6094 17.9664 42.4609C17.8616 42.1094 17.8266 41.7188 17.8266 41.3281V41.0156C17.8266 39.4141 18.5607 38.125 19.7841 37.3047C20.3783 36.9141 21.0075 36.7187 21.6717 36.7187H21.9513C22.6504 36.7187 23.3145 36.9531 23.9088 37.3828L23.9437 37.4219L23.9787 37.4609C24.0486 37.5781 24.0835 37.6953 24.0835 37.8516V38.0078C24.0835 38.3984 23.8389 38.5937 23.5243 38.6719H23.4194C23.2446 38.6719 22.7902 38.4375 22.6154 38.3594ZM26.9499 39.375C27.4742 38.7891 27.9985 38.2031 28.5228 37.6563C28.6626 37.5 29.2219 36.8359 29.4317 36.8359H29.7113C30.0259 36.9141 30.2356 37.1094 30.2356 37.5V37.6563C30.2356 37.8906 29.9909 38.2031 29.8162 38.3594L28.8724 39.4141L27.2644 41.25C27.9635 42.0312 28.6626 42.8125 29.3268 43.5937L29.8861 44.2578C29.956 44.3359 30.0608 44.4141 30.0958 44.5313C30.1657 44.6484 30.2007 44.7656 30.2007 44.8828V45.0781C30.1308 45.4297 29.921 45.7031 29.6064 45.7031H29.5016C29.2918 45.7031 29.0472 45.4297 28.8724 45.2734C28.5578 44.9609 28.2432 44.6094 27.9635 44.2578L26.9499 43.125V44.9219C26.9499 45.3516 26.7052 45.6641 26.3207 45.6641H26.2158C25.8313 45.6641 25.5866 45.3125 25.5866 44.9219V34.7266C25.5866 34.2969 25.8313 33.9844 26.2158 33.9844H26.3207C26.7052 33.9844 26.9499 34.2969 26.9499 34.7266V39.375V39.375ZM43.5884 36.7969H43.7282C44.1127 36.7969 44.3924 37.1094 44.3924 37.5391C44.3924 38.1641 43.868 38.3203 43.4136 38.3203C42.8194 38.3203 42.2252 38.7109 41.8407 39.1797C41.3163 39.7656 41.1066 40.4687 41.1066 41.2891V44.8828C41.1066 45.3125 40.8619 45.625 40.4774 45.625H40.3726C39.988 45.625 39.7434 45.2734 39.7434 44.8828V41.0547C39.7434 39.5703 40.3726 38.3984 41.4562 37.5391C42.0853 37.0703 42.8194 36.7969 43.5884 36.7969V36.7969ZM34.1156 43.9453C34.605 44.1406 35.1643 44.1016 35.6536 44.0234C35.8983 43.9062 36.5625 43.5937 36.8072 43.6328H36.8771C37.0169 43.7109 37.1567 43.8281 37.2266 43.9844C37.4014 44.375 37.3315 44.7656 36.9819 45L36.8771 45.0781C35.6187 45.8984 34.2554 45.7812 32.9971 45C32.4028 44.6484 31.9484 44.1016 31.5989 43.4375L31.529 43.2813C30.725 41.7188 30.8299 40.0391 31.7387 38.5547C32.0533 38.0469 32.4727 37.6562 32.9621 37.3437L33.1369 37.2266C34.3253 36.4453 35.6187 36.5234 36.8421 37.1875C37.5062 37.5391 38.0306 38.0859 38.4151 38.7891L38.485 38.9062C38.7646 39.4141 38.4151 39.8828 38.0655 40.1953C37.6461 40.5469 37.2266 40.9766 36.8421 41.3672C35.8983 42.2266 34.9895 43.0859 34.1156 43.9453ZM32.9621 43.0469L35.9333 40.1953C36.2828 39.8828 36.6324 39.5313 36.9819 39.1797C36.7023 38.7891 36.2479 38.5156 35.8983 38.3594C35.1293 38.0469 34.3603 38.125 33.6612 38.5938C32.7524 39.1797 32.3329 40.1563 32.3679 41.3281C32.3679 41.7969 32.5077 42.2266 32.7174 42.6562C32.7873 42.8125 32.8572 42.9297 32.9621 43.0469" fill="#3A4D54"/>
<path fill-rule="evenodd" clip-rule="evenodd" d="M25.7618 13.1641H29.7117V17.6562H31.7041C32.613 17.6562 33.5567 17.4609 34.4306 17.1484C34.8501 16.9922 35.3395 16.7578 35.7589 16.4844C35.1996 15.6641 34.92 14.6484 34.8501 13.6328C34.7452 12.2656 34.9899 10.4688 35.8288 9.41406L36.2483 8.86719L36.7376 9.29687C37.996 10.4297 39.0097 11.9531 39.2194 13.75C40.7225 13.2422 42.4703 13.3594 43.7985 14.2188L44.3229 14.5703L44.0432 15.1953C42.9247 17.6172 40.5827 18.3984 38.3106 18.2422C34.885 27.7344 27.4746 32.2266 18.4562 32.2266C13.8072 32.2266 9.5427 30.2734 7.09585 25.6641L7.0609 25.5859L6.71135 24.7656C5.87243 22.7344 5.62775 20.5078 5.80252 18.2812L5.87243 17.6172H9.22811V13.1641H13.178V8.75H21.0429V4.33594H25.7618V13.1641V13.1641Z" fill="#3A4D54"/>
<path d="M38.5204 14.8047C38.8 12.5 37.262 10.7031 36.2832 9.84375C35.1996 11.25 35.0249 15 36.7377 16.5625C35.7589 17.5 33.7665 18.3984 31.6692 18.3984H6.43172C6.22199 20.8203 6.60649 23.0469 7.48037 24.9609L7.76001 25.5469C7.93478 25.8984 8.14451 26.2109 8.35424 26.5625C9.40289 26.6406 10.3467 26.6797 11.2205 26.6406C12.9333 26.6016 14.3315 26.3672 15.4151 25.9766C15.5899 25.8984 15.7297 26.0156 15.7996 26.1719C15.8696 26.3672 15.7647 26.5234 15.6249 26.6016C15.485 26.6406 15.3452 26.7188 15.1705 26.7578C14.3315 27.0313 13.4227 27.1875 12.2692 27.2656H12.0595C11.605 27.3047 11.1157 27.3047 10.5914 27.3047C10.0321 27.3047 9.50775 27.3047 8.87856 27.2656C10.9759 29.9219 14.2616 31.4844 18.3863 31.4844C27.125 31.4844 34.5355 27.1484 37.7863 17.4609C40.1283 17.7344 42.3654 17.0703 43.3791 14.8438C41.8061 13.8281 39.7088 14.1406 38.5204 14.8047V14.8047Z" fill="#00AADA"/>
<path d="M38.5204 14.8047C38.8 12.5 37.262 10.7031 36.2833 9.84375C35.1997 11.25 35.0249 15 36.7377 16.5625C35.7589 17.5 33.7665 18.3984 31.6692 18.3984H7.89985C7.79498 22.1094 9.0184 24.9219 11.2206 26.6016C12.9334 26.5625 14.3316 26.3281 15.4152 25.9375C15.5899 25.8594 15.7298 25.9766 15.7997 26.1328C15.8696 26.3281 15.7647 26.4844 15.6249 26.5625C15.4851 26.6016 15.3453 26.6797 15.1705 26.7187C14.3316 26.9922 13.3528 27.1875 12.1993 27.2656L12.1643 27.2266C15.1355 28.9453 19.435 28.9062 24.3986 26.7969C29.9215 24.4141 35.0948 19.8828 38.6952 14.7266C38.6252 14.7656 38.5903 14.8047 38.5204 14.8047V14.8047Z" fill="#28B8EB"/>
<path d="M6.46667 21.3281C6.60649 22.6172 6.95604 23.8281 7.48037 24.9609L7.76001 25.5469C7.93478 25.8984 8.14451 26.2109 8.35424 26.5625C9.40289 26.6406 10.3467 26.6797 11.2205 26.6406C12.9333 26.6016 14.3315 26.3672 15.4151 25.9766C15.5899 25.8984 15.7297 26.0156 15.7996 26.1719C15.8696 26.3672 15.7647 26.5234 15.6249 26.6016C15.4851 26.6406 15.3452 26.7188 15.1705 26.7578C14.3315 27.0313 13.3528 27.2266 12.1993 27.3047H12.0595C11.6051 27.3438 11.1157 27.3438 10.6263 27.3438C10.067 27.3438 9.50776 27.3438 8.91352 27.3047C11.0108 29.9609 14.3315 31.5234 18.4562 31.5234C25.9366 31.5234 32.4382 28.3594 36.2133 21.3672H6.46667V21.3281Z" fill="#028BB8"/>
<path d="M8.14453 21.3281C8.59895 23.5937 9.64759 25.3906 11.2206 26.6016C12.9334 26.5625 14.3316 26.3281 15.4152 25.9375C15.5899 25.8594 15.7298 25.9766 15.7997 26.1328C15.8696 26.3281 15.7647 26.4844 15.6249 26.5625C15.4851 26.6016 15.3452 26.6797 15.1705 26.7188C14.3316 26.9922 13.3528 27.1875 12.1643 27.2656C15.1355 28.9844 19.435 28.9453 24.3636 26.8359C27.3348 25.5469 30.2361 23.6328 32.8227 21.3281H8.14453V21.3281Z" fill="#019BC6"/>
<path fill-rule="evenodd" clip-rule="evenodd" d="M9.8573 13.8672H13.2829V17.6953H9.8573V13.8672ZM10.1369 14.2188H10.4166V17.3828H10.1369V14.2188ZM10.6613 14.2188H10.9409V17.3828H10.6613V14.2188ZM11.1856 14.2188H11.4652V17.3828H11.1856V14.2188V14.2188ZM11.675 14.2188H11.9546V17.3828H11.675V14.2188ZM12.1993 14.2188H12.4789V17.3828H12.1993V14.2188ZM12.7236 14.2188H13.0032V17.3828H12.7236V14.2188ZM13.8072 9.49219H17.2328V13.2812H13.8072V9.49219ZM14.0868 9.80469H14.3665V12.9688H14.0868V9.80469ZM14.6112 9.80469H14.8908V12.9688H14.6112V9.80469ZM15.1005 9.80469H15.3802V12.9688H15.1005V9.80469ZM15.6249 9.80469H15.9045V12.9688H15.6249V9.80469ZM16.1492 9.80469H16.4288V12.9688H16.1492V9.80469ZM16.6735 9.80469H16.9532V12.9688H16.6735V9.80469Z" fill="#00ACD3"/>
<path fill-rule="evenodd" clip-rule="evenodd" d="M13.8072 13.8672H17.2328V17.6953H13.8072V13.8672ZM14.0868 14.2188H14.3665V17.3828H14.0868V14.2188ZM14.6112 14.2188H14.8908V17.3828H14.6112V14.2188ZM15.1005 14.2188H15.3802V17.3828H15.1005V14.2188ZM15.6248 14.2188H15.9045V17.3828H15.6248V14.2188ZM16.1492 14.2188H16.4288V17.3828H16.1492V14.2188ZM16.6735 14.2188H16.9531V17.3828H16.6735V14.2188Z" fill="#23C2EE"/>
<path fill-rule="evenodd" clip-rule="evenodd" d="M17.7571 13.8672H21.1827V17.6953H17.7571V13.8672ZM18.0367 14.2188H18.3164V17.3828H18.0367V14.2188ZM18.5261 14.2188H18.8057V17.3828H18.5261V14.2188ZM19.0504 14.2188H19.3301V17.3828H19.0504V14.2188ZM19.5747 14.2188H19.8544V17.3828H19.5747V14.2188ZM20.0991 14.2188H20.3787V17.3828H20.0991V14.2188ZM20.5884 14.2188H20.8681V17.3828H20.5884V14.2188Z" fill="#00ACD3"/>
<path fill-rule="evenodd" clip-rule="evenodd" d="M17.7571 9.49219H21.1827V13.2812H17.7571V9.49219ZM18.0367 9.80469H18.3164V12.9688H18.0367V9.80469ZM18.5261 9.80469H18.8057V12.9688H18.5261V9.80469ZM19.0504 9.80469H19.3301V12.9688H19.0504V9.80469ZM19.5747 9.80469H19.8544V12.9688H19.5747V9.80469ZM20.0991 9.80469H20.3787V12.9688H20.0991V9.80469ZM20.5884 9.80469H20.8681V12.9688H20.5884V9.80469ZM21.672 13.8672H25.0976V17.6953H21.672V13.8672ZM21.9866 14.2188H22.2663V17.3828H21.9866V14.2188ZM22.476 14.2188H22.7556V17.3828H22.476V14.2188ZM23.0003 14.2188H23.28V17.3828H23.0003V14.2188ZM23.5246 14.2188H23.8043V17.3828H23.5246V14.2188ZM24.014 14.2188H24.2937V17.3828H24.014V14.2188ZM24.5383 14.2188H24.818V17.3828H24.5383V14.2188Z" fill="#23C2EE"/>
<path fill-rule="evenodd" clip-rule="evenodd" d="M21.6721 9.49219H25.0976V13.2813H21.6721V9.49219ZM21.9867 9.80469H22.2663V12.9688H21.9867V9.80469ZM22.476 9.80469H22.7557V12.9688H22.476V9.80469ZM23.0003 9.80469H23.28V12.9688H23.0003V9.80469ZM23.5247 9.80469H23.8043V12.9688H23.5247V9.80469ZM24.014 9.80469H24.2937V12.9688H24.014V9.80469ZM24.5384 9.80469H24.818V12.9688H24.5384V9.80469Z" fill="#00ACD3"/>
<path fill-rule="evenodd" clip-rule="evenodd" d="M21.6721 5.07812H25.0976V8.90625H21.6721V5.07812ZM21.9867 5.39063H22.2663V8.59375H21.9867V5.39063ZM22.476 5.39063H22.7557V8.59375H22.476V5.39063ZM23.0003 5.39063H23.28V8.59375H23.0003V5.39063ZM23.5247 5.39063H23.8043V8.59375H23.5247V5.39063ZM24.014 5.39063H24.2937V8.59375H24.014V5.39063ZM24.5384 5.39063H24.818V8.59375H24.5384V5.39063Z" fill="#23C2EE"/>
<path fill-rule="evenodd" clip-rule="evenodd" d="M25.6219 13.8672H29.0475V17.6953H25.6219V13.8672ZM25.9016 14.2188H26.1812V17.3828H25.9016V14.2188ZM26.4259 14.2188H26.7056V17.3828H26.4259V14.2188ZM26.9502 14.2188H27.2299V17.3828H26.9502V14.2188ZM27.4396 14.2188H27.7192V17.3828H27.4396V14.2188ZM27.9639 14.2188H28.2436V17.3828H27.9639V14.2188ZM28.4883 14.2188H28.7679V17.3828H28.4883V14.2188Z" fill="#00ACD3"/>
<path fill-rule="evenodd" clip-rule="evenodd" d="M16.9881 23.9062C17.5124 23.9062 17.9319 24.375 17.9319 24.9609C17.9319 25.5469 17.5124 26.0156 16.9881 26.0156C16.4638 26.0156 16.0443 25.5469 16.0443 24.9609C16.0793 24.375 16.4987 23.9062 16.9881 23.9062Z" fill="#D4EEF1"/>
<path fill-rule="evenodd" clip-rule="evenodd" d="M16.9877 24.1797C17.0576 24.1797 17.1625 24.1797 17.2324 24.2188C17.1625 24.2578 17.0926 24.375 17.0926 24.4922C17.0926 24.6484 17.2324 24.8047 17.3722 24.8047C17.4771 24.8047 17.582 24.7266 17.6169 24.6484C17.6519 24.7266 17.6519 24.8438 17.6519 24.9219C17.6519 25.3516 17.3373 25.6641 16.9877 25.6641C16.6032 25.6641 16.3236 25.3125 16.3236 24.9219C16.3236 24.5313 16.6382 24.1797 16.9877 24.1797V24.1797ZM0.349182 21.7187H44.1477C43.2039 21.4453 41.1416 21.0938 41.4562 19.6875C39.7084 21.9141 35.5488 21.25 34.4652 20.1562C33.2767 22.0703 26.4256 21.3281 25.9712 19.8437C24.503 21.7969 19.924 21.7969 18.4558 19.8437C17.9665 21.3281 11.1153 22.0703 9.96179 20.1562C8.91314 21.25 4.71855 21.9141 2.9708 19.6875C3.35531 21.0547 1.29297 21.4453 0.349182 21.7187" fill="#3A4D54"/>
<path d="M19.5049 31.4844C17.1629 30.2344 15.9045 28.5547 15.1705 26.7188C14.2966 26.9922 13.2479 27.1875 12.0595 27.2656C11.6051 27.3047 11.1157 27.3047 10.6263 27.3047C10.0321 27.3047 9.43784 27.3047 8.80865 27.2656C10.9409 29.6484 13.5975 31.4844 18.4562 31.5234C18.8058 31.4844 19.1553 31.4844 19.5049 31.4844V31.4844Z" fill="#BFDBE0"/>
<path d="M16.0443 28.3984C15.7297 27.8906 15.4151 27.3047 15.1704 26.7188C14.2966 26.9922 13.2479 27.1875 12.0594 27.2656C12.8984 27.7734 14.0868 28.2422 16.0443 28.3984V28.3984Z" fill="#D4EEF1"/>
</g>
<defs>
<clipPath id="clip0">
<rect width="44.7423" height="50" rx="8" fill="white"/>
</clipPath>
</defs>
</svg>
