<svg width="50" height="56" viewBox="0 0 72 80" fill="none" xmlns="http://www.w3.org/2000/svg">
<path d="M13.5076 67.8644L8.51956 5.34753H63.3282L58.3335 67.8545L35.8906 74.808L13.5076 67.8644Z" fill="#E44F26"/>
<path d="M35.9239 69.4942L54.0603 63.8754L58.3268 10.4603H35.9239V69.4942Z" fill="#F1662A"/>
<path d="M35.9239 33.6452H26.8446L26.2186 25.7937H35.9239V18.1257H35.8995H18.7199L18.8842 20.1847L20.569 41.3131H35.9239V33.6452Z" fill="#EBEBEB"/>
<path d="M35.9238 53.558L35.8927 53.5679L28.2519 51.2633L27.7635 45.1483H24.0497H20.8752L21.8365 57.1848L35.8927 61.5459L35.9238 61.536V53.558Z" fill="#EBEBEB"/>
<path d="M35.8994 33.6452V41.3131H44.3483L43.5536 51.2584L35.8994 53.5655V61.5435L49.9668 57.1849L50.0689 55.8899L51.6805 35.7042L51.8492 33.6452H50.0001H35.8994Z" fill="white"/>
<path d="M35.8994 18.1257V22.8887V25.7763V25.7937H52.4508H52.473L52.6106 24.072L52.9237 20.1847L53.0879 18.1257H35.8994Z" fill="white"/>
</svg>
