<svg width="45" height="51" viewBox="0 0 40 51" fill="none" xmlns="http://www.w3.org/2000/svg">
<path d="M4.22187 45.494L0.710938 0.492188H39.2891L35.7734 45.4868L19.9766 50.4922L4.22187 45.494Z" fill="#E44F26"/>
<path d="M20 46.6672L32.7656 42.6225L35.7687 4.17255H20V46.6672Z" fill="#F1662A"/>
<path d="M20 20.8619H13.6094L13.1688 15.2101H20V9.69043H19.9828H7.89062L8.00625 11.1726L9.19219 26.3815H20V20.8619Z" fill="#EBEBEB"/>
<path d="M19.9999 35.1958L19.978 35.2029L14.5999 33.544L14.2562 29.1422H11.6421H9.40771L10.0843 37.8065L19.978 40.9458L19.9999 40.9386V35.1958Z" fill="#EBEBEB"/>
<path d="M19.9828 20.8619V26.3815H25.9297L25.3703 33.5405L19.9828 35.2012V40.944L29.8844 37.8065L29.9562 36.8744L31.0906 22.344L31.2094 20.8619H29.9078H19.9828Z" fill="white"/>
<path d="M19.9828 9.69043V13.119V15.1976V15.2101H31.6328H31.6484L31.7453 13.9708L31.9656 11.1726L32.0812 9.69043H19.9828Z" fill="white"/>
</svg>
