<svg width="45" height="50" viewBox="0 0 45 50" fill="none" xmlns="http://www.w3.org/2000/svg">
<path d="M41.9459 3.125H2.79639V46.875H41.9459V3.125Z" fill="#F5DE19"/>
<path d="M29.0951 37.3047C29.4286 38.0619 29.9469 38.6983 30.5901 39.1406C31.2333 39.5829 31.9752 39.8131 32.7304 39.8047C34.2544 39.8047 35.229 38.9531 35.229 37.7734C35.229 36.3672 34.2279 35.8641 32.55 35.0438L31.63 34.6031C28.9734 33.3391 27.2117 31.7563 27.2117 28.4094C27.2117 25.3266 29.309 22.9781 32.599 22.9781C33.664 22.8922 34.7281 23.1586 35.6585 23.744C36.5889 24.3295 37.3445 25.2081 37.831 26.2703L34.9549 28.325C34.7676 27.7983 34.4414 27.3477 34.0197 27.0329C33.5979 26.7182 33.1005 26.5541 32.5934 26.5625C32.3721 26.5377 32.1487 26.5648 31.9373 26.6419C31.7259 26.7189 31.5312 26.8444 31.3656 27.0102C31.2 27.176 31.0671 27.3785 30.9754 27.6049C30.8837 27.8313 30.8352 28.0765 30.833 28.325C30.833 29.5578 31.5167 30.0578 33.0953 30.825L34.0153 31.2656C37.1417 32.7641 38.909 34.2906 38.909 37.7234C38.909 41.425 36.307 43.4531 32.8129 43.4531C31.4515 43.5501 30.094 43.2046 28.9044 42.4586C27.7147 41.7125 26.7437 40.5976 26.1085 39.2484L29.0951 37.3047ZM16.0988 37.6609C16.6763 38.8063 17.202 39.775 18.466 39.775C19.674 39.775 20.4374 39.2469 20.4374 37.1922V23.2125H24.1161V37.2469C24.1161 41.5031 21.879 43.4406 18.6226 43.4406C17.4715 43.5109 16.3283 43.1904 15.3434 42.5211C14.3584 41.8518 13.5777 40.865 13.1039 39.6906L16.0988 37.6609Z" fill="black"/>
</svg>
